<mxfile host="app.diagrams.net" agent="Mozilla/5.0 (Windows NT 10.0; Win64; x64) AppleWebKit/537.36 (KHTML, like Gecko) Chrome/127.0.0.0 Safari/537.36" version="24.7.7">
  <diagram name="PÃ¡gina-1" id="bhJXvFWaEnV3-3vg-4JW">
    <mxGraphModel dx="2634" dy="1222" grid="0" gridSize="10" guides="1" tooltips="1" connect="1" arrows="1" fold="1" page="0" pageScale="1" pageWidth="827" pageHeight="1169" math="0" shadow="0">
      <root>
        <mxCell id="0" />
        <mxCell id="1" parent="0" />
        <mxCell id="pgNqsw2ilYk1wIuuiq4K-1" value="" style="rounded=0;whiteSpace=wrap;html=1;" vertex="1" parent="1">
          <mxGeometry x="-832" y="-86" width="725" height="452" as="geometry" />
        </mxCell>
        <mxCell id="pgNqsw2ilYk1wIuuiq4K-3" value="" style="rounded=0;whiteSpace=wrap;html=1;" vertex="1" parent="1">
          <mxGeometry x="-832" y="-86" width="726" height="125" as="geometry" />
        </mxCell>
        <mxCell id="pgNqsw2ilYk1wIuuiq4K-4" value="" style="ellipse;whiteSpace=wrap;html=1;aspect=fixed;" vertex="1" parent="1">
          <mxGeometry x="-791" y="-63.5" width="80" height="80" as="geometry" />
        </mxCell>
        <mxCell id="pgNqsw2ilYk1wIuuiq4K-5" value="" style="rounded=0;whiteSpace=wrap;html=1;" vertex="1" parent="1">
          <mxGeometry x="-832" y="37" width="725" height="60" as="geometry" />
        </mxCell>
      </root>
    </mxGraphModel>
  </diagram>
</mxfile>
